<svg fill="none" height="32" viewBox="0 0 156 32" width="156" xmlns="http://www.w3.org/2000/svg"><g fill="#eeedfc"><path d="m122.351 16.378c0-5.1018-3.039-8.20896-6.917-8.20896-2.287 0-3.878 1.02651-4.746 2.42186v-7.3116h-5.672v21.0957h5.672v-2.2252c.84 1.4261 2.496 2.4249 4.746 2.4249 3.878-.0153 6.917-3.0949 6.917-8.1967zm-5.267-.0153c0 .6625-.199 1.3102-.573 1.8611s-.905.9803-1.526 1.2338c-.622.2536-1.305.3199-1.965.1907-.66-.1293-1.266-.4483-1.741-.9168-.476-.4685-.8-1.0655-.931-1.7153s-.064-1.3234.194-1.9355c.257-.6121.693-1.1353 1.252-1.5034s1.217-.5646 1.889-.5646c.902 0 1.767.3529 2.405.9812.638.6282.996 1.4803.996 2.3688z"/><path d="m26.105 3.2793h5.6721v21.0957h-5.6721z"/><path d="m60.0195 3.2793h5.6722v7.3761c.9547-1.37072 2.6613-2.42489 4.992-2.42489 3.7034 0 6.0497 2.62469 6.0497 6.81369v9.3215h-5.6597v-8.587c0-1.844-1.0421-2.9351-2.6614-2.9351-1.6785 0-2.7206 1.0819-2.7206 2.9351v8.5809h-5.6722z"/><path d="m93.6719 8.36871v2.22209c-.8362-1.42608-2.4586-2.42185-4.7736-2.42185-3.847 0-6.9139 3.07335-6.9139 8.18135 0 5.1079 3.0669 8.209 6.9139 8.209 2.2869 0 3.9374-.9989 4.7736-2.4249v2.2251h5.6721v-15.98157zm-2.496 11.34389c-.6726 0-1.3301-.1965-1.8894-.5646s-.9952-.8913-1.2526-1.5034c-.2574-.6122-.3247-1.2857-.1935-1.9356.1312-.6498.4551-1.2467.9307-1.7152.4757-.4685 1.0816-.7876 1.7413-.9168.6597-.1293 1.3435-.063 1.9649.1906.6214.2535 1.1525.6829 1.5262 1.2338s.5732 1.1986.5732 1.8612c0 .4404-.0882.8765-.2595 1.2834-.1713.4068-.4223.7764-.7388 1.0875-.3165.3112-.6921.5578-1.1054.7258s-.8562.2541-1.3034.2533z"/><path d="m133.315 8.3689h-5.673v15.9908h5.673z"/></g><path d="m130.478 6.534c1.832 0 3.317-1.46269 3.317-3.267s-1.485-3.267-3.317-3.267c-1.831 0-3.316 1.46269-3.316 3.267s1.485 3.267 3.316 3.267z" fill="#08e8de"/><path d="m138.987 3.2793h5.672v21.0957h-5.672z" fill="#eeedfc"/><path d="m150.328 3.2793h5.672v21.0957h-5.672z" fill="#eeedfc"/><path d="m20.9321 8.3689h-5.6784c-.098.75722-.2397 1.50834-.4243 2.2497-1.5382-1.57356-3.7628-2.45869-6.32116-2.45869-4.83288.00922-8.50824 3.11029-8.50824 8.19059 0 5.0802 3.64728 8.2089 8.47704 8.2089 2.56466 0 4.80476-.882 6.34606-2.4587.1885.7461.3323 1.5024.4306 2.2651h5.6784c-.5757-2.7875-1.5561-5.4787-2.911-7.9908 1.3563-2.5168 2.3368-5.2133 2.911-8.0061zm-12.26474 11.3469c-.67261 0-1.33012-.1965-1.88938-.5646s-.99515-.8913-1.25255-1.5034-.32474-1.2857-.19352-1.9355c.13122-.6499.45511-1.2468.93072-1.7153s1.08158-.7875 1.74127-.9168c.65969-.1292 1.34347-.0629 1.96489.1906.62141.2536 1.15251.683 1.52621 1.2339s.5732 1.1986.5732 1.8611c0 .8885-.3583 1.7406-.9961 2.3688-.6378.6283-1.50279.9812-2.40474.9812z" fill="#eeedfc"/><path d="m47.8639 8.16895c-2.2558 0-3.9063.99577-4.7456 2.42185v-2.22209h-5.6784v23.62809h5.6784v-9.8624c.8674 1.3984 2.4617 2.4249 4.7456 2.4249 3.8781 0 6.917-3.1072 6.917-8.209s-3.0389-8.18135-6.917-8.18135zm-1.7504 11.54365c-.6726 0-1.3301-.1965-1.8893-.5646-.5593-.3681-.9952-.8913-1.2526-1.5034-.2574-.6122-.3247-1.2857-.1935-1.9356.1312-.6498.4551-1.2467.9307-1.7152s1.0816-.7876 1.7413-.9168c.6597-.1293 1.3435-.063 1.9649.1906.6214.2535 1.1525.6829 1.5262 1.2338s.5731 1.1986.5731 1.8612c0 .8884-.3583 1.7405-.996 2.3688-.6378.6282-1.5028.9812-2.4048.9812z" fill="#eeedfc"/></svg>