<svg fill="#08e8de" height="24" viewBox="0 0 40 24" width="40" xmlns="http://www.w3.org/2000/svg">
    <path d="m30.1824.294842h-8.1898c-.1422 1.109348-.3474 2.209698-.6146 3.295708-1.1952-1.18486-2.6192-2.11375-4.1851-2.730037-1.5659-.616285-3.241-.9070158-4.923-.85447328-6.96798 0-12.2699 4.54731028-12.2699 11.97556028 0 7.4283 5.25749 12.0126 12.2255 12.0126 1.6904.0514 3.3736-.2418 4.9471-.8619s3.0043-1.554 4.2054-2.7448c.2671 1.0935.4723 2.2013.6146 3.3179h8.1898c-.8297-4.0821-2.2438-8.0232-4.1986-11.7016 1.9543-3.68112 3.3684-7.6246 4.1986-11.708958zm-17.6829 16.611858c-.9705 0-1.9191-.2881-2.72574-.8279-.80661-.5397-1.4349-1.3067-1.80526-2.2039-.37037-.8972-.46611-1.8841-.27516-2.8358.19096-.9516.66005-1.82516 1.34784-2.50994.68778-.68478 1.56332-1.14995 2.51562-1.33661.9524-.18666 1.9387-.08641 2.8341.28808.8953.37449 1.6594 1.00636 2.1953 1.81554.536.80913.8197 1.75923.8153 2.72993-.0059 1.2964-.5249 2.5378-1.4436 3.4524-.9187.9147-2.1622 1.4282-3.4584 1.4282z"/>
    <path d="m35.0981 16.8149c2.7073 0 4.902-2.1951 4.902-4.9028 0-2.70776-2.1947-4.90282-4.902-4.90282s-4.9021 2.19506-4.9021 4.90282c0 2.7077 2.1948 4.9028 4.9021 4.9028z"/>
</svg>
