<svg fill="#08e8de" height="16" viewBox="0 0 16 16" width="16" xmlns="http://www.w3.org/2000/svg">
    <path d="m8 16c-4.42182 0-8-3.5782-8-8 0-4.42182 3.57818-8 8-8 4.4218 0 8 3.57818 8 8 0 4.4218-3.5782 8-8 8zm0-1.4545c3.6145 0 6.5455-2.931 6.5455-6.5455 0-3.61455-2.931-6.54545-6.5455-6.54545-3.61455 0-6.54545 2.9309-6.54545 6.54545 0 3.6145 2.9309 6.5455 6.54545 6.5455zm-.72727-7.27277v-2.18182c0-.4.32727-.72727.72727-.72727s.72727.32727.72727.72727v2.18182h2.18183c.4 0 .7273.32727.7273.72727s-.3273.72727-.7273.72727h-2.18183v2.18183c0 .4-.32727.7273-.72727.7273s-.72727-.3273-.72727-.7273v-2.18183h-2.18182c-.4 0-.72727-.32727-.72727-.72727s.32727-.72727.72727-.72727z"/>
</svg>