<svg width="16" height="16" viewBox="0 0 16 16" fill="none" xmlns="http://www.w3.org/2000/svg">
<path d="M3.2423 6.5537L6.82516 10.4703C7.13738 10.8096 7.55975 11 8 11C8.44025 11 8.86261 10.8096 9.17484 10.4703L12.7577 6.5537C12.9129 6.38304 13 6.15219 13 5.91156C13 5.67093 12.9129 5.44008 12.7577 5.26942C12.6802 5.18405 12.5881 5.11629 12.4866 5.07005C12.385 5.02381 12.2761 5 12.1661 5C12.0561 5 11.9472 5.02381 11.8457 5.07005C11.7441 5.11629 11.652 5.18405 11.5745 5.26942L8 9.17689L4.42547 5.26942C4.34801 5.18405 4.25586 5.11629 4.15432 5.07005C4.05279 5.02381 3.94388 5 3.83388 5C3.72389 5 3.61498 5.02381 3.51345 5.07005C3.41191 5.11629 3.31975 5.18405 3.2423 5.26942C3.08711 5.44008 3 5.67093 3 5.91156C3 6.15219 3.08711 6.38304 3.2423 6.5537Z" fill="#EEEDFC"/>
</svg>
