<svg width="24" height="24" viewBox="0 0 24 24" fill="none" xmlns="http://www.w3.org/2000/svg">
    <path d="M14.1695 4.86344L8.29459 10.2377C7.78566 10.7061 7.5 11.3396 7.5 12C7.5 12.6604 7.78566 13.2939 8.29459 13.7623L14.1695 19.1366C14.4254 19.3693 14.7717 19.5 15.1327 19.5C15.4936 19.5 15.8399 19.3693 16.0959 19.1366C16.2239 19.0204 16.3256 18.8821 16.3949 18.7298C16.4643 18.5775 16.5 18.4142 16.5 18.2492C16.5 18.0842 16.4643 17.9208 16.3949 17.7685C16.3256 17.6162 16.2239 17.478 16.0959 17.3618L10.2347 12L16.0959 6.63821C16.2239 6.52202 16.3256 6.38379 16.3949 6.23148C16.4643 6.07918 16.5 5.91582 16.5 5.75083C16.5 5.58583 16.4643 5.42247 16.3949 5.27017C16.3256 5.11786 16.2239 4.97963 16.0959 4.86344C15.8399 4.63066 15.4936 4.5 15.1327 4.5C14.7717 4.5 14.4254 4.63066 14.1695 4.86344Z"
          fill="#EEEDFC"/>
</svg>