<svg width="12" height="15" viewBox="0 0 12 15" fill="none" xmlns="http://www.w3.org/2000/svg">
<path d="M0.849376 15H10.7531C11.2203 15 11.6025 14.6178 11.6025 14.1506C11.6025 13.6835 11.2203 13.3013 10.7531 13.3013H0.849376C0.382219 13.3013 0 13.6835 0 14.1506C0 14.6178 0.382219 15 0.849376 15Z" fill="#4E3EB6"/>
<path d="M4.99412 9.09681V0.849376C4.99412 0.382219 5.37634 0 5.84349 0C6.31065 0 6.69287 0.382219 6.69287 0.849376V9.01187L9.40238 6.30237C9.73363 5.97111 10.2687 5.97111 10.6 6.30237C10.9313 6.63362 10.9313 7.16873 10.6 7.49999L6.99864 11.1013C6.33613 11.7639 5.25742 11.7639 4.59491 11.1013L0.99356 7.49999C0.662303 7.16873 0.662303 6.63362 0.99356 6.30237C1.32482 5.97111 1.85992 5.97111 2.19118 6.30237L4.98562 9.09681H4.99412Z" fill="#4E3EB6"/>
</svg>
