<svg width="12" height="12" viewBox="0 0 12 12" fill="#EEEDFC" xmlns="http://www.w3.org/2000/svg">
<path d="M5.14286 1.14286C4.51429 1.14286 4 1.65714 4 2.28571V6.85714C4 7.48571 4.51429 8 5.14286 8H9.71429C10.3429 8 10.8571 7.48571 10.8571 6.85714V2.28571C10.8571 1.65714 10.3429 1.14286 9.71429 1.14286H5.14286ZM9.14286 9.14286V9.71429C9.14286 10.9771 8.12 12 6.85714 12H2.28571C1.02286 12 0 10.9771 0 9.71429V5.14286C0 3.88 1.02286 2.85714 2.28571 2.85714H2.85714V2.28571C2.85714 1.02286 3.88 0 5.14286 0H9.71429C10.9771 0 12 1.02286 12 2.28571V6.85714C12 8.12 10.9771 9.14286 9.71429 9.14286H9.14286ZM8 9.14286H5.14286C3.88 9.14286 2.85714 8.12 2.85714 6.85714V4H2.28571C1.65714 4 1.14286 4.51429 1.14286 5.14286V9.71429C1.14286 10.3429 1.65714 10.8571 2.28571 10.8571H6.85714C7.48571 10.8571 8 10.3429 8 9.71429V9.14286Z" />
</svg>
