<svg fill="none" height="24" viewBox="0 0 24 24" width="24" xmlns="http://www.w3.org/2000/svg"><path clip-rule="evenodd" d="m12 2.25c-6.21203 0-11.249709 5.03194-11.24999 11.2448-.003684 2.7491 1.00284 5.4038 2.82826 7.4594l.00794.0088.01998.0224c.03228.0363.09259.1041.14144.154.17955.1916.39633.3446.63711.4496.24504.1068.5096.1616.77691.1609.26732-.0007.53158-.0569.77604-.1651.24409-.108.46314-.2654.6433-.4624.68965-.7492 1.52716-1.3472 2.45965-1.7563.37931-.1665.55188-.6089.38546-.9882-.16643-.3793-.60884-.5519-.98814-.3854-1.12291.4927-2.1314 1.2129-2.96172 2.1153l-.00178.0019c-.04023.044-.08917.0792-.14371.1034-.05453.0241-.11349.0366-.17314.0368-.05964.0002-.11867-.0121-.17334-.0359s-.10379-.0588-.14426-.1026c-.00673-.0073-.0136-.0144-.02061-.0214-.02056-.0206-.03101-.0325-.04907-.0531-.01545-.0177-.03649-.0417-.07421-.0829-1.57893-1.7801-2.44941-4.078-2.44611-6.4576v-.0011c0-5.38378 4.36534-9.7453 9.74999-9.7453 5.3847 0 9.75 4.36152 9.75 9.7453 0 .4142.3358.75.75.75s.75-.3358.75-.75c0-6.21307-5.0378-11.2453-11.25-11.2453zm.75 3.75c0-.41421-.3358-.75-.75-.75s-.75.33579-.75.75v1.5c0 .41421.3358.75.75.75s.75-.33579.75-.75zm-5.52311 1.66623c-.29289-.29289-.76776-.29289-1.06066 0-.29289.2929-.29289.76777 0 1.06066l1.06078 1.06078c.2929.29293.76777.29293 1.06066 0 .2929-.29289.2929-.76776 0-1.06066zm10.60691 1.06066c.2929-.29289.2929-.76776 0-1.06066-.2929-.29289-.7678-.29289-1.0607 0l-1.0608 1.06078c-.2929.2929-.2929.76777 0 1.06066.2929.29293.7678.29293 1.0607 0zm-13.3338 4.02311c-.41421 0-.75.3358-.75.75s.33579.75.75.75h1.5c.41421 0 .75-.3358.75-.75s-.33579-.75-.75-.75zm12.5.5c.4142 0 .75.3358.75.75v3.25h3.25c.4142 0 .75.3358.75.75s-.3358.75-.75.75h-3.25v3.25c0 .4142-.3358.75-.75.75s-.75-.3358-.75-.75v-3.25h-3.25c-.4142 0-.75-.3358-.75-.75s.3358-.75.75-.75h3.25v-3.25c0-.4142.3358-.75.75-.75z" fill="#aca4e0" fill-rule="evenodd"/></svg>