<svg width="25" height="24" viewBox="0 0 25 24" fill="#0C0A3E" xmlns="http://www.w3.org/2000/svg">
    <path fill-rule="evenodd" clip-rule="evenodd"
          d="M13 3C13.4024 3 13.7286 3.32671 13.7286 3.72973V13.6437L16.3705 10.9975C16.6551 10.7125 17.1164 10.7125 17.4009 10.9975C17.6854 11.2825 17.6854 11.7445 17.4009 12.0295L13.5152 15.9214C13.3785 16.0583 13.1932 16.1351 13 16.1351C12.8068 16.1351 12.6215 16.0583 12.4848 15.9214L8.59911 12.0295C8.31458 11.7445 8.31458 11.2825 8.59911 10.9975C8.88363 10.7125 9.34494 10.7125 9.62946 10.9975L12.2714 13.6437V3.72973C12.2714 3.32671 12.5976 3 13 3ZM5.22857 14.6757C5.63095 14.6757 5.95714 15.0024 5.95714 15.4054L5.95714 18.3243C5.95714 18.996 6.5008 19.5405 7.17143 19.5405H18.8286C19.4992 19.5405 20.0429 18.996 20.0429 18.3243V15.4054C20.0429 15.0024 20.3691 14.6757 20.7714 14.6757C21.1738 14.6757 21.5 15.0024 21.5 15.4054V18.3243C21.5 19.8021 20.304 21 18.8286 21H7.17143C5.69604 21 4.5 19.8021 4.5 18.3243L4.5 15.4054C4.5 15.0024 4.82619 14.6757 5.22857 14.6757Z"/>
</svg>
