<svg width="96" height="96" viewBox="0 0 96 96" fill="#08E8DE" xmlns="http://www.w3.org/2000/svg">
    <path fill-rule="evenodd" clip-rule="evenodd" d="M49 18.5385C32.1766 18.5385 18.5385 32.1766 18.5385 49C18.5385 65.8234 32.1766 79.4615 49 79.4615C65.8234 79.4615 79.4615 65.8234 79.4615 49C79.4615 32.1766 65.8234 18.5385 49 18.5385ZM13 49C13 29.1177 29.1177 13 49 13C68.8823 13 85 29.1177 85 49C85 68.8823 68.8823 85 49 85C29.1177 85 13 68.8823 13 49ZM49 27.7692C50.5294 27.7692 51.7692 29.0091 51.7692 30.5385V56.3846C51.7692 57.914 50.5294 59.1538 49 59.1538C47.4706 59.1538 46.2308 57.914 46.2308 56.3846V30.5385C46.2308 29.0091 47.4706 27.7692 49 27.7692ZM49 64.6554C50.5294 64.6554 51.7692 65.8952 51.7692 67.4246V67.4615C51.7692 68.9909 50.5294 70.2308 49 70.2308C47.4706 70.2308 46.2308 68.9909 46.2308 67.4615V67.4246C46.2308 65.8952 47.4706 64.6554 49 64.6554Z"/>
</svg>
