<svg fill="none" height="800" viewBox="0 0 24 24" width="800" xmlns="http://www.w3.org/2000/svg"><g clip-rule="evenodd" fill-rule="evenodd"><path d="m18.865 5.12377c.437.153.729.565.729 1.028v6.77303c0 1.893-.689 3.7-1.903 5.1-.612.705-1.384 1.254-2.205 1.698l-3.558 1.922-3.564-1.923c-.823-.444-1.596-.992-2.208-1.698-1.216-1.4-1.906-3.208-1.906-5.103v-6.76903c0-.463.292-.875.729-1.028l6.582-2.313c.234-.082.489-.082.722 0z" stroke="#130f26" stroke-linecap="round" stroke-linejoin="round" stroke-width="1.5"/><path d="m10.5733 9.55805c-.2929-.29289-.76777-.29289-1.06066 0s-.29289.76775 0 1.06065l1.34876 1.3488-1.34855 1.3485c-.29289.2929-.29289.7678 0 1.0607.2929.2929.76775.2929 1.06065 0l1.3486-1.3486 1.3485 1.3486c.2929.2929.7678.2929 1.0607 0s.2929-.7678 0-1.0607l-1.3486-1.3485 1.3488-1.3488c.2929-.2929.2929-.76776 0-1.06065s-.7678-.29289-1.0606 0l-1.3488 1.34875z" fill="red" opacity=".4"/></g></svg>