<svg width="24" height="24" viewBox="0 0 24 24" fill="none" xmlns="http://www.w3.org/2000/svg">
<path fill-rule="evenodd" clip-rule="evenodd" d="M12 2.25C5.78797 2.25 0.750291 7.28194 0.75001 13.4948C0.746326 16.2439 1.75285 18.8986 3.57827 20.9542L3.58621 20.963L3.60619 20.9854C3.63847 21.0217 3.69878 21.0895 3.74763 21.1394C3.92718 21.331 4.14396 21.484 4.38474 21.589C4.62978 21.6958 4.89434 21.7506 5.16165 21.7499C5.42897 21.7492 5.69323 21.693 5.93769 21.5848C6.18178 21.4768 6.40083 21.3194 6.58099 21.1224C7.27064 20.3732 8.10815 19.7752 9.04064 19.3661C9.41995 19.1996 9.59252 18.7572 9.4261 18.3779C9.25967 17.9986 8.81726 17.826 8.43796 17.9925C7.31505 18.4852 6.30656 19.2054 5.47624 20.1078L5.47446 20.1097C5.43423 20.1537 5.38529 20.1889 5.33075 20.2131C5.27622 20.2372 5.21726 20.2497 5.15761 20.2499C5.09797 20.2501 5.03894 20.2378 4.98427 20.214C4.9296 20.1902 4.88048 20.1552 4.84001 20.1114C4.83328 20.1041 4.82641 20.097 4.8194 20.09C4.79884 20.0694 4.78839 20.0575 4.77033 20.0369C4.75488 20.0192 4.73384 19.9952 4.69612 19.954C3.11719 18.1739 2.24671 15.876 2.25001 13.4964L2.25001 13.4953C2.25001 8.11152 6.61535 3.75 12 3.75C17.3847 3.75 21.75 8.11152 21.75 13.4953C21.75 13.9095 22.0858 14.2453 22.5 14.2453C22.9142 14.2453 23.25 13.9095 23.25 13.4953C23.25 7.28223 18.2122 2.25 12 2.25ZM12.75 6C12.75 5.58579 12.4142 5.25 12 5.25C11.5858 5.25 11.25 5.58579 11.25 6V7.5C11.25 7.91421 11.5858 8.25 12 8.25C12.4142 8.25 12.75 7.91421 12.75 7.5V6ZM7.22689 7.66623C6.934 7.37334 6.45913 7.37334 6.16623 7.66623C5.87334 7.95913 5.87334 8.434 6.16623 8.72689L7.22701 9.78767C7.51991 10.0806 7.99478 10.0806 8.28767 9.78767C8.58057 9.49478 8.58057 9.01991 8.28767 8.72701L7.22689 7.66623ZM17.8338 8.72689C18.1267 8.434 18.1267 7.95913 17.8338 7.66623C17.5409 7.37334 17.066 7.37334 16.7731 7.66623L15.7123 8.72701C15.4194 9.01991 15.4194 9.49478 15.7123 9.78767C16.0052 10.0806 16.4801 10.0806 16.773 9.78767L17.8338 8.72689ZM4.5 12.75C4.08579 12.75 3.75 13.0858 3.75 13.5C3.75 13.9142 4.08579 14.25 4.5 14.25H6C6.41421 14.25 6.75 13.9142 6.75 13.5C6.75 13.0858 6.41421 12.75 6 12.75H4.5ZM17 13.25C17.4142 13.25 17.75 13.5858 17.75 14V17.25H21C21.4142 17.25 21.75 17.5858 21.75 18C21.75 18.4142 21.4142 18.75 21 18.75H17.75V22C17.75 22.4142 17.4142 22.75 17 22.75C16.5858 22.75 16.25 22.4142 16.25 22V18.75H13C12.5858 18.75 12.25 18.4142 12.25 18C12.25 17.5858 12.5858 17.25 13 17.25H16.25V14C16.25 13.5858 16.5858 13.25 17 13.25Z" fill="white"/>
</svg>
