<svg fill="none" height="24" viewBox="0 0 25 24" width="25" xmlns="http://www.w3.org/2000/svg"><g clip-rule="evenodd" fill="#aca4e0" fill-rule="evenodd"><path d="m12.625 6c-3.31371 0-6 2.68629-6 6 0 3.3137 2.68629 6 6 6 3.3137 0 6-2.6863 6-6 0-3.31371-2.6863-6-6-6zm-4.66667 6c0-2.57733 2.08937-4.66667 4.66667-4.66667s4.6667 2.08934 4.6667 4.66667c0 2.5773-2.0894 4.6667-4.6667 4.6667s-4.66667-2.0894-4.66667-4.6667z"/><path d="m12.625 3c-4.97056 0-9 4.02944-9 9 0 4.9706 4.02944 9 9 9 4.9706 0 9-4.0294 9-9 0-4.97056-4.0294-9-9-9zm-7.61538 9c0-4.20586 3.40952-7.61538 7.61538-7.61538 4.2059 0 7.6154 3.40952 7.6154 7.61538 0 4.2059-3.4095 7.6154-7.6154 7.6154-4.20586 0-7.61538-3.4095-7.61538-7.6154z"/></g></svg>