<svg width="112" height="49" viewBox="0 0 112 49" fill="#ACA4E0" xmlns="http://www.w3.org/2000/svg">
    <path fill-rule="evenodd" clip-rule="evenodd"
          d="M55.8334 10C52.5197 10 49.8334 12.6863 49.8334 16C49.8334 19.3137 52.5197 22 55.8334 22C59.1471 22 61.8334 19.3137 61.8334 16C61.8334 12.6863 59.1471 10 55.8334 10ZM51.1667 16C51.1667 13.4227 53.256 11.3333 55.8334 11.3333C58.4107 11.3333 60.5 13.4227 60.5 16C60.5 18.5773 58.4107 20.6667 55.8334 20.6667C53.256 20.6667 51.1667 18.5773 51.1667 16Z"/>
    <path fill-rule="evenodd" clip-rule="evenodd"
          d="M55.8334 7C50.8628 7 46.8334 11.0294 46.8334 16C46.8334 20.9706 50.8628 25 55.8334 25C60.8039 25 64.8334 20.9706 64.8334 16C64.8334 11.0294 60.8039 7 55.8334 7ZM48.218 16C48.218 11.7941 51.6275 8.38462 55.8334 8.38462C60.0392 8.38462 63.4488 11.7941 63.4488 16C63.4488 20.2059 60.0392 23.6154 55.8334 23.6154C51.6275 23.6154 48.218 20.2059 48.218 16Z"/>
    <text x="30" y="47" font-size="14" font-family="arial">
        Fungible
    </text>
</svg>
