<svg width="112" height="49" viewBox="0 0 112 49" fill="none" xmlns="http://www.w3.org/2000/svg">
    <path fill-rule="evenodd" clip-rule="evenodd" d="M55.8334 10C52.5197 10 49.8334 12.6863 49.8334 16C49.8334 19.3137 52.5197 22 55.8334 22C59.1471 22 61.8334 19.3137 61.8334 16C61.8334 12.6863 59.1471 10 55.8334 10ZM51.1667 16C51.1667 13.4227 53.256 11.3333 55.8334 11.3333C58.4107 11.3333 60.5 13.4227 60.5 16C60.5 18.5773 58.4107 20.6667 55.8334 20.6667C53.256 20.6667 51.1667 18.5773 51.1667 16Z" fill="#ACA4E0"/>
    <path fill-rule="evenodd" clip-rule="evenodd" d="M55.8334 7C50.8628 7 46.8334 11.0294 46.8334 16C46.8334 20.9706 50.8628 25 55.8334 25C60.8039 25 64.8334 20.9706 64.8334 16C64.8334 11.0294 60.8039 7 55.8334 7ZM48.218 16C48.218 11.7941 51.6275 8.38462 55.8334 8.38462C60.0392 8.38462 63.4488 11.7941 63.4488 16C63.4488 20.2059 60.0392 23.6154 55.8334 23.6154C51.6275 23.6154 48.218 20.2059 48.218 16Z" fill="#ACA4E0"/>
    <path d="M35.9693 42V35H40.1993V35.76H36.8093V38.11H39.9293V38.87H36.8093V42H35.9693ZM43.2697 42.09C42.9164 42.09 42.5897 42.0133 42.2897 41.86C41.9964 41.7067 41.763 41.48 41.5897 41.18C41.423 40.8733 41.3397 40.5033 41.3397 40.07V37.11H42.1297V40.01C42.1297 40.4967 42.2497 40.85 42.4897 41.07C42.7364 41.29 43.0664 41.4 43.4797 41.4C43.9464 41.4 44.3297 41.2467 44.6297 40.94C44.9297 40.6333 45.0797 40.1767 45.0797 39.57V37.11H45.8697V42H45.0997V41.17H44.9597C44.853 41.4033 44.6697 41.6167 44.4097 41.81C44.1497 41.9967 43.7697 42.09 43.2697 42.09ZM47.5227 42V37.11H48.2927V37.94H48.4327C48.5394 37.7067 48.7194 37.4967 48.9727 37.31C49.2327 37.1167 49.6127 37.02 50.1127 37.02C50.4794 37.02 50.8061 37.0967 51.0927 37.25C51.3861 37.4033 51.6194 37.63 51.7927 37.93C51.9661 38.23 52.0527 38.6 52.0527 39.04V42H51.2627V39.1C51.2627 38.6133 51.1394 38.26 50.8927 38.04C50.6527 37.82 50.3261 37.71 49.9127 37.71C49.4394 37.71 49.0527 37.8633 48.7527 38.17C48.4594 38.4767 48.3127 38.9333 48.3127 39.54V42H47.5227ZM53.4156 39.58V39.44C53.4156 38.9267 53.5189 38.4867 53.7256 38.12C53.9322 37.7533 54.2122 37.47 54.5656 37.27C54.9189 37.07 55.3056 36.97 55.7256 36.97C56.2389 36.97 56.6322 37.07 56.9056 37.27C57.1856 37.4633 57.3922 37.68 57.5256 37.92H57.6656V37.11H58.4156V43.14C58.4156 43.4067 58.3422 43.6167 58.1956 43.77C58.0489 43.9233 57.8356 44 57.5556 44H54.2356V43.3H57.3456C57.5456 43.3 57.6456 43.2 57.6456 43V41.14H57.5056C57.4256 41.2867 57.3122 41.43 57.1656 41.57C57.0189 41.71 56.8289 41.8267 56.5956 41.92C56.3622 42.0067 56.0722 42.05 55.7256 42.05C55.3056 42.05 54.9189 41.95 54.5656 41.75C54.2122 41.55 53.9322 41.2667 53.7256 40.9C53.5189 40.5267 53.4156 40.0867 53.4156 39.58ZM55.9356 41.35C56.4422 41.35 56.8522 41.19 57.1656 40.87C57.4856 40.55 57.6456 40.11 57.6456 39.55V39.47C57.6456 38.9033 57.4856 38.4633 57.1656 38.15C56.8522 37.83 56.4422 37.67 55.9356 37.67C55.4356 37.67 55.0222 37.83 54.6956 38.15C54.3756 38.4633 54.2156 38.9033 54.2156 39.47V39.55C54.2156 40.11 54.3756 40.55 54.6956 40.87C55.0222 41.19 55.4356 41.35 55.9356 41.35ZM60.0716 42V37.11H60.8616V42H60.0716ZM60.4716 36.35C60.2982 36.35 60.1516 36.2933 60.0316 36.18C59.9182 36.0667 59.8616 35.9233 59.8616 35.75C59.8616 35.57 59.9182 35.4233 60.0316 35.31C60.1516 35.1967 60.2982 35.14 60.4716 35.14C60.6449 35.14 60.7882 35.1967 60.9016 35.31C61.0149 35.4233 61.0716 35.57 61.0716 35.75C61.0716 35.9233 61.0149 36.0667 60.9016 36.18C60.7882 36.2933 60.6449 36.35 60.4716 36.35ZM65.2327 42.14C64.7261 42.14 64.3294 42.0433 64.0427 41.85C63.7627 41.6567 63.5594 41.4367 63.4327 41.19H63.2927V42H62.5227V35H63.3127V37.88H63.4527C63.5327 37.7267 63.6461 37.5833 63.7927 37.45C63.9394 37.31 64.1294 37.1967 64.3627 37.11C64.6027 37.0167 64.8927 36.97 65.2327 36.97C65.6594 36.97 66.0461 37.0733 66.3927 37.28C66.7461 37.48 67.0261 37.77 67.2327 38.15C67.4394 38.5233 67.5427 38.97 67.5427 39.49V39.62C67.5427 40.14 67.4361 40.59 67.2227 40.97C67.0161 41.35 66.7361 41.64 66.3827 41.84C66.0361 42.04 65.6527 42.14 65.2327 42.14ZM65.0227 41.44C65.5294 41.44 65.9394 41.28 66.2527 40.96C66.5727 40.6333 66.7327 40.18 66.7327 39.6V39.51C66.7327 38.93 66.5727 38.48 66.2527 38.16C65.9394 37.8333 65.5294 37.67 65.0227 37.67C64.5227 37.67 64.1094 37.8333 63.7827 38.16C63.4627 38.48 63.3027 38.93 63.3027 39.51V39.6C63.3027 40.18 63.4627 40.6333 63.7827 40.96C64.1094 41.28 64.5227 41.44 65.0227 41.44ZM68.9583 42V35H69.7483V42H68.9583ZM73.6495 42.14C73.1561 42.14 72.7228 42.0367 72.3495 41.83C71.9761 41.6167 71.6861 41.32 71.4795 40.94C71.2728 40.56 71.1695 40.12 71.1695 39.62V39.5C71.1695 38.9933 71.2728 38.55 71.4795 38.17C71.6861 37.79 71.9728 37.4967 72.3395 37.29C72.7061 37.0767 73.1261 36.97 73.5995 36.97C74.0595 36.97 74.4661 37.07 74.8195 37.27C75.1728 37.4633 75.4495 37.7433 75.6495 38.11C75.8495 38.4767 75.9495 38.9067 75.9495 39.4V39.76H71.9595C71.9795 40.2867 72.1495 40.7 72.4695 41C72.7895 41.2933 73.1895 41.44 73.6695 41.44C74.0895 41.44 74.4128 41.3433 74.6395 41.15C74.8661 40.9567 75.0395 40.7267 75.1595 40.46L75.8395 40.79C75.7395 40.9967 75.5995 41.2033 75.4195 41.41C75.2461 41.6167 75.0161 41.79 74.7295 41.93C74.4495 42.07 74.0895 42.14 73.6495 42.14ZM71.9695 39.11H75.1495C75.1228 38.6567 74.9661 38.3033 74.6795 38.05C74.3995 37.7967 74.0395 37.67 73.5995 37.67C73.1528 37.67 72.7861 37.7967 72.4995 38.05C72.2128 38.3033 72.0361 38.6567 71.9695 39.11Z" fill="#ACA4E0"/>
</svg>
