<svg fill="none" height="16" viewBox="0 0 12 16" width="12" xmlns="http://www.w3.org/2000/svg"><path d="m1.5 8v2.1818c0 1.2073 1.005 2.1818 2.25 2.1818h4.5c1.245 0 2.25-.9745 2.25-2.1818v-2.1818zm9-1.45455c.825 0 1.5.65455 1.5 1.45455v2.1818c0 2.0073-1.68 3.6364-3.75 3.6364h-1.5v1.4545c0 .4-.3375.7273-.75.7273s-.75-.3273-.75-.7273v-1.4545h-1.5c-2.07 0-3.75-1.6291-3.75-3.6364v-2.1818c0-.8.675-1.45455 1.5-1.45455v-4.36363c0-1.207275 1.005-2.18182 2.25-2.18182h4.5c1.245 0 2.25.974545 2.25 2.18182zm-1.5 0v-4.36363c0-.4-.3375-.72727-.75-.72727h-4.5c-.4125 0-.75.32727-.75.72727v4.36363zm-5.0325-2.39272c-.2925-.28364-.2925-.74182 0-1.02546.2925-.28363.765-.28363 1.0575 0 .2925.28364.2925.74182 0 1.02546-.2925.28363-.765.28363-1.0575 0zm3 0c-.2925-.28364-.2925-.74182 0-1.02546.2925-.28363.765-.28363 1.0575 0 .2925.28364.2925.74182 0 1.02546-.2925.28363-.765.28363-1.0575 0z" fill="#08e8de"/></svg>