<svg fill="none" height="24" viewBox="0 0 25 24" width="25" xmlns="http://www.w3.org/2000/svg"><path clip-rule="evenodd" d="m5.125 3.25c.41421 0 .75.33579.75.75v2.1051c1.57717-1.64856 3.71881-2.8551 6.25-2.8551 4.8324 0 8.75 3.9176 8.75 8.75s-3.9176 8.75-8.75 8.75-8.75-3.9176-8.75-8.75c0-.4142.33579-.75.75-.75s.75.3358.75.75c0 4.004 3.24603 7.25 7.25 7.25 4.004 0 7.25-3.246 7.25-7.25 0-4.00397-3.246-7.25-7.25-7.25-2.119 0-3.97087 1.06024-5.35192 2.59091h2.44283c.41421 0 .75.33579.75.75s-.33579.75-.75.75h-4.84091v-4.84091c0-.41421.33579-.75.75-.75zm7 5c.4142 0 .75.33579.75.75v3.4443l1.813 2.0602c.2737.311.2434.7849-.0675 1.0585-.311.2737-.7849.2434-1.0585-.0675l-2.187-2.4852v-4.0103c0-.41421.3358-.75.75-.75z" fill="#aca4e0" fill-rule="evenodd"/></svg>