<svg fill="none" height="24" viewBox="0 0 25 24" width="25" xmlns="http://www.w3.org/2000/svg"><path clip-rule="evenodd" d="m12.4235 3.18055c.2585-.24073.6445-.24073.903 0l7.3143 6.81081c.1488.13854.2342.33874.2342.54914v9.7298c0 .1935-.0722.3791-.2008.516-.1286.1368-.3031.2137-.4849.2137h-4.5714c-.3787 0-.6858-.3267-.6858-.7297v-3.8919c0-.5806-.2167-1.1375-.6025-1.548-.3858-.4106-.909-.6412-1.4546-.6412s-1.0688.2306-1.4546.6412c-.3858.4105-.6025.9674-.6025 1.548v3.8919c0 .403-.307.7297-.6858.7297h-4.57138c-.37871 0-.68572-.3267-.68572-.7297v-9.7298c0-.2104.08536-.4106.23417-.54914zm-6.17707 7.69115v8.6688h3.2v-3.1621c0-.9677.36122-1.8958 1.00417-2.58.643-.6843 1.5151-1.0687 2.4244-1.0687s1.7814.3844 2.4244 1.0687c.643.6842 1.0042 1.6123 1.0042 2.58v3.1621h3.2v-8.6688l-6.6286-6.17233z" fill="#aca4e0" fill-rule="evenodd"/></svg>