<svg fill="none" height="16" viewBox="0 0 14 16" width="14" xmlns="http://www.w3.org/2000/svg"><path d="m3.14397 6.85714 3.85992 4.85336 3.85991-4.85336h-2.30349c-.42801 0-.77821-.34285-.77821-.7619v-3.80953c0-.41904-.35019-.7619-.77821-.7619-.42801 0-.77821.34286-.77821.7619v3.80953c0 .41905-.35019.7619-.77821.7619zm7.71203-1.52381c.8561 0 1.5565.68572 1.5565 1.52381 0 .33524-.1168.67048-.3269.93715l-3.85992 4.85331c-.52918.6629-1.50194.7848-2.18677.2667-.10117-.0762-.19455-.1676-.27237-.2667l-3.84436-4.85331c-.52918-.66286-.40467-1.62286.27237-2.14096.27238-.20571.60701-.32.9572-.32h1.52529v-3.04762c0-1.26476 1.0428-2.28571 2.33463-2.28571s2.33463 1.02095 2.33463 2.28571v3.04762h1.5253zm1.5876 7.61907c0-.4191.3502-.7619.7782-.7619s.7782.3428.7782.7619c0 1.6838-1.393 3.0476-3.1128 3.0476h-7.77436c-1.71984 0-3.11284-1.3638-3.11284-3.0476 0-.4191.350195-.7619.77821-.7619.42802 0 .77821.3428.77821.7619 0 .8381.70039 1.5238 1.55642 1.5238h7.78206c.8561 0 1.5565-.6857 1.5565-1.5238z" fill="#08e8de"/></svg>