<svg width="24" height="24" viewBox="0 0 24 24" fill="none" xmlns="http://www.w3.org/2000/svg">
<g id="icon">
<path id="icon_2" fill-rule="evenodd" clip-rule="evenodd" d="M16.4607 3.96315C15.7363 3.75332 14.9752 3.70203 14.2292 3.81275C13.4832 3.92348 12.7698 4.19363 12.1376 4.60482C11.5054 5.016 10.9692 5.55857 10.5655 6.19559C10.1618 6.83261 9.90008 7.54913 9.79816 8.29638C9.69625 9.04362 9.75652 9.80406 9.97488 10.5259C10.0549 10.7906 9.98286 11.0779 9.78733 11.2734L3.82333 17.2374C3.77648 17.2842 3.75006 17.3478 3.75 17.4141V20.0001C3.75 20.0664 3.77634 20.13 3.82322 20.1769C3.87011 20.2237 3.93369 20.2501 4 20.2501H6.25V19.0001C6.25 18.5859 6.58579 18.2501 7 18.2501H8.25V17.0001C8.25 16.5859 8.58579 16.2501 9 16.2501H10.6893L12.7267 14.2127C12.9224 14.017 13.21 13.945 13.4749 14.0254C14.2595 14.2636 15.0891 14.3147 15.8971 14.1746C16.705 14.0345 17.4689 13.7071 18.1276 13.2186C18.7862 12.7301 19.3212 12.094 19.6898 11.3615C20.0583 10.6291 20.2502 9.82065 20.25 9.0008M14.009 2.32901C14.9681 2.18665 15.9466 2.2526 16.878 2.52237C17.8094 2.79215 18.6717 3.25942 19.4062 3.89238C20.1408 4.52533 20.7303 5.30912 21.1348 6.19038C21.5392 7.07165 21.7491 8.02971 21.75 8.99935C21.7503 10.0537 21.5036 11.0939 21.0298 12.0357C20.5559 12.9775 19.868 13.7953 19.0212 14.4233C18.1743 15.0514 17.1922 15.4724 16.1534 15.6526C15.2653 15.8066 14.357 15.7809 13.4818 15.5789L11.5303 17.5304C11.3897 17.6711 11.1989 17.7501 11 17.7501H9.75V19.0001C9.75 19.4143 9.41421 19.7501 9 19.7501H7.75V21.0001C7.75 21.4143 7.41421 21.7501 7 21.7501H4C3.53587 21.7501 3.09075 21.5657 2.76256 21.2375C2.43437 20.9093 2.25 20.4642 2.25 20.0001V17.4141C2.2501 16.95 2.43451 16.5049 2.76267 16.1767L8.42153 10.5179C8.23913 9.7243 8.20154 8.90297 8.31192 8.09367C8.44296 7.13292 8.77945 6.21168 9.29849 5.39265C9.81753 4.57363 10.5069 3.87604 11.3198 3.34737C12.1326 2.81871 13.0498 2.47137 14.009 2.32901ZM20.25 9.0008C20.2492 8.2468 20.086 7.50132 19.7715 6.81605C19.4569 6.13062 18.9984 5.521 18.4271 5.02871C17.8557 4.53641 17.1851 4.17297 16.4607 3.96315M14.3071 6.71306C14.4232 6.43281 14.6967 6.25008 15 6.25008C15.7293 6.25008 16.4288 6.53981 16.9445 7.05553C17.4603 7.57126 17.75 8.27073 17.75 9.00008C17.75 9.30342 17.5673 9.5769 17.287 9.69299C17.0068 9.80907 16.6842 9.7449 16.4697 9.53041L14.4697 7.53041C14.2552 7.31591 14.191 6.99332 14.3071 6.71306Z" fill="white"/>
</g>
</svg>
