<svg width="24" height="24" viewBox="0 0 24 24" fill="none" xmlns="http://www.w3.org/2000/svg">
<g id="icon">
<path id="icon_2" fill-rule="evenodd" clip-rule="evenodd" d="M12 3.75C10.2051 3.75 8.75 5.20507 8.75 7V8.25H15.25V7C15.25 5.20507 13.7949 3.75 12 3.75ZM16.75 8.25781V7C16.75 4.37665 14.6234 2.25 12 2.25C9.37665 2.25 7.25 4.37665 7.25 7V8.25781C7.09769 8.26219 6.95624 8.26904 6.82533 8.27974C6.44545 8.31078 6.08879 8.37789 5.75153 8.54973C5.23408 8.81338 4.81338 9.23408 4.54973 9.75153C4.37789 10.0888 4.31078 10.4454 4.27974 10.8253C4.24998 11.1896 4.24999 11.6354 4.25 12.1696V17.8304C4.24999 18.3646 4.24998 18.8104 4.27974 19.1747C4.31078 19.5546 4.37789 19.9112 4.54973 20.2485C4.81339 20.7659 5.23408 21.1866 5.75153 21.4503C6.08879 21.6221 6.44545 21.6892 6.82533 21.7203C7.18956 21.75 7.6354 21.75 8.16955 21.75H15.8305C16.3646 21.75 16.8104 21.75 17.1747 21.7203C17.5546 21.6892 17.9112 21.6221 18.2485 21.4503C18.7659 21.1866 19.1866 20.7659 19.4503 20.2485C19.6221 19.9112 19.6892 19.5546 19.7203 19.1747C19.75 18.8104 19.75 18.3646 19.75 17.8305V12.1695C19.75 11.6354 19.75 11.1896 19.7203 10.8253C19.6892 10.4454 19.6221 10.0888 19.4503 9.75153C19.1866 9.23408 18.7659 8.81338 18.2485 8.54973C17.9112 8.37789 17.5546 8.31078 17.1747 8.27974C17.0438 8.26904 16.9023 8.26219 16.75 8.25781ZM6.94748 9.77476C6.66036 9.79822 6.52307 9.8401 6.43251 9.88624C6.19731 10.0061 6.00608 10.1973 5.88624 10.4325C5.8401 10.5231 5.79822 10.6604 5.77476 10.9475C5.75058 11.2434 5.75 11.6276 5.75 12.2V17.8C5.75 18.3724 5.75058 18.7566 5.77476 19.0525C5.79822 19.3396 5.8401 19.4769 5.88624 19.5675C6.00608 19.8027 6.19731 19.9939 6.43251 20.1138C6.52307 20.1599 6.66036 20.2018 6.94748 20.2252C7.24336 20.2494 7.62757 20.25 8.2 20.25H15.8C16.3724 20.25 16.7566 20.2494 17.0525 20.2252C17.3396 20.2018 17.4769 20.1599 17.5675 20.1138C17.8027 19.9939 17.9939 19.8027 18.1138 19.5675C18.1599 19.4769 18.2018 19.3396 18.2252 19.0525C18.2494 18.7566 18.25 18.3724 18.25 17.8V12.2C18.25 11.6276 18.2494 11.2434 18.2252 10.9475C18.2018 10.6604 18.1599 10.5231 18.1138 10.4325C17.9939 10.1973 17.8027 10.0061 17.5675 9.88624C17.4769 9.8401 17.3396 9.79822 17.0525 9.77476C16.7566 9.75058 16.3724 9.75 15.8 9.75H8.2C7.62757 9.75 7.24336 9.75058 6.94748 9.77476Z" fill="white"/>
</g>
</svg>
