<svg fill="none" height="16" viewBox="0 0 14 16" width="14" xmlns="http://www.w3.org/2000/svg"><path d="m10.8889 4.57143c1.7189 0 3.1111 1.36381 3.1111 3.04762v5.33335c0 1.6838-1.3922 3.0476-3.1111 3.0476h-7.77779c-1.71889 0-3.11111-1.3638-3.11111-3.0476v-5.33335c0-1.68381 1.39222-3.04762 3.11111-3.04762v-.76191c0-2.10285 1.74222-3.80952 3.88889-3.80952s3.8889 1.70667 3.8889 3.80952zm-7.77779 1.52381c-.85555 0-1.55555.68571-1.55555 1.52381v5.33335c0 .8381.7 1.5238 1.55555 1.5238h7.77779c.8555 0 1.5555-.6857 1.5555-1.5238v-5.33335c0-.8381-.7-1.52381-1.5555-1.52381zm6.22222-1.52381v-.76191c0-1.26476-1.04222-2.28571-2.33333-2.28571s-2.33333 1.02095-2.33333 2.28571v.76191zm-2.33333 8.38097c-1.50111 0-2.72222-1.1962-2.72222-2.6667 0-1.47046 1.22111-2.66665 2.72222-2.66665s2.72222 1.19619 2.72222 2.66665c0 1.4705-1.22111 2.6667-2.72222 2.6667zm0-1.5238c.64556 0 1.16667-.5105 1.16667-1.1429 0-.63237-.52111-1.14284-1.16667-1.14284s-1.16667.51047-1.16667 1.14284c0 .6324.52111 1.1429 1.16667 1.1429z" fill="#08e8de"/></svg>