<svg fill="none" height="32" viewBox="0 0 176 32" width="176" xmlns="http://www.w3.org/2000/svg" xmlns:xlink="http://www.w3.org/1999/xlink"><clipPath id="a"><path d="m0 0h176v32h-176z"/></clipPath><g clip-path="url(#a)"><path d="m164.117 26.2914-6.6-15.1252h4.42l4.507 10.8475 5.21-10.8475h4.346l-10.273 20.8337h-4.419zm-16.071-3.1316c.39-.0886.767-.2285 1.12-.4161.341-.1812.658-.4044.944-.6643.285-.2605.531-.5604.731-.8906.21-.3468.373-.7199.483-1.1095.12-.4252.179-.8651.176-1.3067.004-.4465-.055-.8913-.176-1.3213-.11-.3896-.273-.7628-.483-1.1096-.201-.3314-.447-.6336-.731-.8979-.282-.2621-.6-.4833-.944-.6569-.356-.1785-.732-.3133-1.12-.4015-.408-.0933-.825-.1399-1.243-.1387-.417-.0014-.832.0451-1.237.1387-.383.0882-.754.223-1.105.4015-.343.1759-.66.3969-.944.6569-.288.2629-.536.5652-.739.8979-.209.3461-.369.7195-.475 1.1096-.116.4308-.173.8753-.169 1.3213-.003.4411.054.8807.169 1.3067.106.39.266.7635.475 1.1095.201.3315.45.6315.739.8906.287.2578.604.4808.944.6643.348.1875.72.3274 1.105.4161.405.0938.82.1403 1.237.1387.418.0013.835-.0452 1.243-.1387zm-4.456 3.3871c-.677-.172-1.329-.4321-1.939-.7738-1.187-.6661-2.167-1.6461-2.831-2.8323-.343-.6132-.603-1.2684-.776-1.949-.361-1.4625-.361-2.9905 0-4.4529.172-.6786.433-1.3315.776-1.9418.667-1.1819 1.647-2.1589 2.831-2.825.61-.3416 1.262-.6017 1.939-.7738.725-.1834 1.47-.2741 2.217-.2701.404-.0009.807.0235 1.208.073.368.0455.732.1187 1.09.219.331.0938.656.2084.973.3431.297.1259.583.2747.856.4453.257.1605.497.3464.717.5548.206.1947.397.4046.571.6277v-1.8249h4.2v15.2128h-4.2v-1.8249c-.269.3361-.576.6399-.915.9052-.375.2936-.785.5389-1.222.7299-.485.2127-.993.3695-1.514.4672-.582.1098-1.172.1636-1.764.1606-.747.004-1.492-.0867-2.217-.2701zm-15.247-11.5264c.602.011 1.202-.0578 1.785-.2044.455-.1146.88-.3263 1.244-.6205.33-.274.582-.6287.732-1.0293.164-.4539.243-.9338.234-1.4162.01-.4799-.07-.9576-.234-1.4088-.151-.3963-.403-.74618-.732-1.01471-.366-.28981-.79-.49879-1.244-.61318-.583-.14649-1.183-.21522-1.785-.2044h-4.127v6.51149zm-8.473-10.10302h8.883c1.395 0 2.605.17033 3.629.51099 1.024.34067 1.868.81272 2.532 1.41617.66.59834 1.168 1.34368 1.485 2.17536.332.87676.498 1.8074.49 2.7447.011.9351-.156 1.8639-.49 2.7375-.322.8247-.83 1.5642-1.485 2.1607-.664.6085-1.508 1.083-2.532 1.4235-1.024.3409-2.234.5112-3.629.511h-4.537v7.7816h-4.346zm-18.663 6.24872h4.171v1.8249c.257-.3542.562-.6711.907-.9417.365-.2854.763-.5256 1.185-.7154.466-.2077.955-.3596 1.456-.4525.558-.1046 1.124-.1559 1.691-.1533.883-.0127 1.76.1358 2.59.438.739.2716 1.408.7028 1.961 1.2628.555.5804.974 1.2758 1.229 2.0367.294.8749.437 1.793.424 2.7155v9.1978h-4.17v-8.1174c.01-.5934-.074-1.1847-.249-1.752-.145-.4683-.387-.9011-.71-1.2701-.31-.3429-.7-.6058-1.134-.7665-.492-.1777-1.013-.2643-1.536-.2555-.526-.0083-1.049.0782-1.544.2555-.437.1593-.829.4224-1.142.7665-.323.369-.565.8018-.709 1.2701-.175.5673-.259 1.1586-.249 1.752v8.1174h-4.171zm-10.2629 11.9498c.3981-.096.7837-.2381 1.1487-.4234.3474-.1772.6657-.4061.9439-.6789.2756-.2692.5142-.5736.7098-.9052.1993-.3415.3472-.7105.439-1.095.0995-.416.1486-.8424.1463-1.2701.0026-.4254-.0465-.8494-.1463-1.2629-.1846-.7621-.583-1.456-1.1488-2.0002-.2819-.2704-.5995-.5013-.9439-.6862-.362-.1938-.7483-.3386-1.1487-.4306-.4343-.0995-.8788-.1485-1.3244-.146-.4407-.002-.8802.047-1.3097.146-.3983.0911-.7823.236-1.1414.4306-.3414.1862-.6564.417-.9366.6862-.276.2651-.5104.5703-.6951.9052-.1888.3441-.3361.7092-.439 1.0877-.1106.4143-.1647.8415-.161 1.2702-.0025.4286.0516.8557.161 1.2702.1001.3818.2476.7496.439 1.0949.1871.3334.4211.6383.6951.9052.2765.2716.5922.5005.9366.6789.3621.1861.7453.3283 1.1414.4234.4287.1039.8685.1554 1.3097.1533.4461.0026.8908-.0488 1.3244-.1533zm-3.7829 3.4236c-.7525-.1747-1.4818-.4368-2.1731-.7811-.6502-.3233-1.2533-.7335-1.7926-1.219-.5227-.4718-.976-1.0149-1.3463-1.6133-.3755-.6091-.6636-1.2676-.8561-1.9563-.4-1.4575-.4-2.9955 0-4.4529.1916-.6868.4799-1.343.8561-1.9491.373-.5964.8259-1.1392 1.3463-1.6132.5379-.4895 1.1411-.9022 1.7926-1.2264.6913-.3441 1.4207-.6062 2.1731-.7811 1.6279-.3699 3.3183-.3699 4.9462 0 .7483.1733 1.4729.4355 2.1585.7811.6486.329 1.2513.7413 1.7927 1.2264.5283.4723.9888 1.0152 1.3682 1.6132.3804.6048.6712 1.2613.8634 1.9491.4 1.4574.4 2.9954 0 4.4529-.193.6897-.4837 1.3485-.8634 1.9563-.3768.6-.8375 1.1432-1.3682 1.6133-.5429.4811-1.1453.8908-1.7927 1.219-.6833.345-1.4055.6072-2.1511.7811-1.6304.3699-3.3232.3699-4.9536 0zm-16.2744-3.4236c.3981-.096.7837-.2381 1.1487-.4234.3474-.1772.6657-.4061.9439-.6789.2756-.2692.5142-.5736.7098-.9052.1995-.3415.3474-.7104.439-1.095.0995-.416.1486-.8424.1463-1.2701.0026-.4254-.0465-.8494-.1463-1.2629-.1845-.7621-.583-1.456-1.1488-2.0002-.2819-.2704-.5995-.5013-.9439-.6862-.362-.1938-.7483-.3386-1.1487-.4306-.4343-.0995-.8787-.1485-1.3244-.146-.4407-.002-.8802.047-1.3097.146-.3983.0911-.7823.236-1.1414.4306-.3414.1863-.6563.417-.9366.6862-.276.2652-.5104.5703-.6951.9052-.1886.3441-.336.7092-.439 1.0877-.1106.4143-.1647.8415-.161 1.2702-.0025.4286.0517.8556.161 1.2701.1003.3818.2478.7496.439 1.095.1871.3334.4212.6382.6951.9052.2766.2715.5922.5004.9366.6789.3621.1861.7453.3283 1.1414.4234.4287.1039.8685.1553 1.3097.1533.4461.0026.8908-.0489 1.3244-.1533zm-3.7828 3.4236c-.7525-.1747-1.4819-.4368-2.1732-.781-.6501-.3234-1.2532-.7335-1.7926-1.2191-.5226-.4718-.9759-1.0149-1.3463-1.6132-.3754-.6091-.6636-1.2676-.8561-1.9564-.4-1.4574-.4-2.9954 0-4.4529.1917-.6867.4799-1.3429.8561-1.949.3731-.5964.826-1.1392 1.3463-1.6133.5379-.4894 1.1412-.9021 1.7926-1.2264.6914-.344 1.4207-.6062 2.1732-.781 1.6279-.3699 3.3183-.3699 4.9462 0 .7482.1732 1.4729.4355 2.1585.781.6486.3291 1.2513.7413 1.7926 1.2264.5284.4723.9889 1.0152 1.3683 1.6133.3804.6047.6712 1.2612.8634 1.949.3999 1.4575.3999 2.9955 0 4.4529-.193.6898-.4837 1.3486-.8634 1.9564-.3768.6-.8375 1.1433-1.3683 1.6132-.5428.4813-1.1453.891-1.7926 1.2191-.6833.3449-1.4055.6071-2.1512.781-1.6304.3699-3.3232.3699-4.9535 0zm-32.9175-21.62212h4.3902l7.5071 11.44612 7.5364-11.44612h4.3902v21.46152h-4.3463v-14.7165l-6.234 9.4898h-2.6633l-6.234-9.4898v14.7165h-4.3463z" fill="#000"/><path d="m24.1621 8.75982c.8683 0 1.7171-.25688 2.439-.73815.722-.48127 1.2847-1.16532 1.617-1.96564.3323-.80033.4192-1.68098.2498-2.5306s-.5875-1.63004-1.2015-2.24258c-.614-.612544-1.3962-1.02969-2.2478-1.1986893-.8516-.1689997-1.7343-.08226296-2.5365.2492423-.8022.331504-1.4879.892887-1.9702 1.613157-.4824.72028-.7399 1.56709-.7399 2.43335-.0001.57519.1135 1.14475.3341 1.67616s.544 1.01426.9516 1.42098c.4077.40672.8917.72934 1.4243.94944.5327.2201 1.1036.33336 1.6801.33333zm-13.4612 19.72598c-2.1165 0-4.18542-.6261-5.94519-1.7992-1.75976-1.1731-3.13133-2.8405-3.941266-4.7913-.8099307-1.9508-1.021845-4.0974-.608944-6.1683.412901-2.071 1.43207-3.9733 2.92863-5.4663 1.49656-1.4931 3.4033-2.50989 5.47908-2.92182 2.07579-.41194 4.22739-.20051 6.18279.60754 1.9553.80805 3.6266 2.17638 4.8024 3.93208s1.8034 3.8198 1.8034 5.9313c0 1.402-.2767 2.7903-.8145 4.0856-.5377 1.2953-1.326 2.4722-2.3196 3.4636-.9937.9913-2.1734 1.7777-3.4717 2.3142s-2.6899.8127-4.0951.8126z" fill="#7d00ff"/></g></svg>