<svg fill="none" height="12" viewBox="0 0 12 12" width="12" xmlns="http://www.w3.org/2000/svg" xmlns:xlink="http://www.w3.org/1999/xlink"><clipPath id="a"><path d="m0 0h12v12h-12z" transform="matrix(0 1 -1 0 12 0)"/></clipPath><g clip-path="url(#a)"><path clip-rule="evenodd" d="m6 4.5c.664 0 1.2.536 1.2 1.2s-.536 1.2-1.2 1.2-1.2-.536-1.2-1.2.536-1.2 1.2-1.2zm-4.8 0c.664 0 1.2.536 1.2 1.2s-.536 1.2-1.2 1.2-1.20000008-.536-1.20000005-1.2.53600005-1.2 1.20000005-1.2zm9.6 0c.664 0 1.2.536 1.2 1.2s-.536 1.2-1.2 1.2-1.2-.536-1.2-1.2.536-1.2 1.2-1.2z" fill="#eeedfc" fill-rule="evenodd"/></g></svg>