<svg fill="none" height="24" viewBox="0 0 25 24" width="25" xmlns="http://www.w3.org/2000/svg"><path clip-rule="evenodd" d="m11.5652 3.21728c.5013-.28971 1.1183-.28971 1.6196 0l6.3759 3.68424c.502.29009.8143.8284.8143 1.41424v7.36844c0 .5859-.3123 1.1242-.8143 1.4143l-6.3759 3.6842c-.5013.2897-1.1183.2897-1.6196 0l-6.37589-3.6842c-.50203-.2901-.81431-.8284-.81431-1.4143v-7.36844c0-.58584.31228-1.12415.81431-1.41424zm.9384 1.20172c-.0793-.04584-.1779-.04584-.2572 0l-6.37586 3.68423c-.07867.04546-.12411.12728-.12411.21253v7.36844c0 .0853.04544.1671.12411.2126l6.37586 3.6842c.0793.0458.1779.0458.2572 0l6.3759-3.6842c.0786-.0455.1241-.1273.1241-.2126v-7.36844c0-.08525-.0455-.16707-.1241-.21253zm-.9384 1.61595c.5013-.28971 1.1183-.28971 1.6196 0l3.9378 2.2754c.502.29009.8143.8284.8143 1.41425v4.5508c0 .5858-.3123 1.1242-.8143 1.4142l-3.9378 2.2755c-.5013.2897-1.1183.2897-1.6196 0l-3.9378-2.2755c-.50202-.29-.8143-.8284-.8143-1.4142v-4.5508c0-.58585.31228-1.12416.8143-1.41425zm.9384 1.20171c-.0793-.04584-.1779-.04584-.2572 0l-3.93776 2.2754c-.07867.04546-.12412.12728-.12412.21254v4.5508c0 .0853.04545.1671.12412.2125l3.93776 2.2754c.0793.0459.1779.0459.2572 0l3.9378-2.2754c.0786-.0454.1241-.1272.1241-.2125v-4.5508c0-.08526-.0455-.16708-.1241-.21254z" fill="#aca4e0" fill-rule="evenodd"/></svg>