<svg width="113" height="49" viewBox="0 0 113 49" fill="#ACA4E0" xmlns="http://www.w3.org/2000/svg">
    <path fill-rule="evenodd" clip-rule="evenodd"
          d="M55.6902 7.21728C56.1915 6.92757 56.8085 6.92757 57.3098 7.21728L63.6857 10.9015C64.1877 11.1916 64.5 11.7299 64.5 12.3158V19.6842C64.5 20.2701 64.1877 20.8084 63.6857 21.0985L57.3098 24.7827C56.8085 25.0724 56.1915 25.0724 55.6902 24.7827L49.3143 21.0985C48.8123 20.8084 48.5 20.2701 48.5 19.6842V12.3158C48.5 11.7299 48.8123 11.1916 49.3143 10.9015L55.6902 7.21728ZM56.6286 8.419C56.5493 8.37316 56.4507 8.37316 56.3714 8.419L49.9955 12.1032C49.9169 12.1487 49.8714 12.2305 49.8714 12.3158V19.6842C49.8714 19.7695 49.9169 19.8513 49.9955 19.8968L56.3714 23.581C56.4507 23.6268 56.5493 23.6268 56.6286 23.581L63.0045 19.8968C63.0831 19.8513 63.1286 19.7695 63.1286 19.6842V12.3158C63.1286 12.2305 63.0831 12.1487 63.0045 12.1032L56.6286 8.419ZM55.6902 10.0349C56.1915 9.74524 56.8085 9.74524 57.3098 10.0349L61.2476 12.3104C61.7496 12.6004 62.0619 13.1388 62.0619 13.7246V18.2754C62.0619 18.8612 61.7496 19.3996 61.2476 19.6896L57.3098 21.9651C56.8085 22.2548 56.1915 22.2548 55.6902 21.9651L51.7524 19.6896C51.2504 19.3996 50.9381 18.8612 50.9381 18.2754V13.7246C50.9381 13.1388 51.2504 12.6004 51.7524 12.3104L55.6902 10.0349ZM56.6286 11.2367C56.5493 11.1908 56.4507 11.1908 56.3714 11.2367L52.4336 13.5121C52.355 13.5575 52.3095 13.6393 52.3095 13.7246V18.2754C52.3095 18.3607 52.355 18.4425 52.4336 18.4879L56.3714 20.7633C56.4507 20.8092 56.5493 20.8092 56.6286 20.7633L60.5664 18.4879C60.645 18.4425 60.6905 18.3607 60.6905 18.2754V13.7246C60.6905 13.6393 60.645 13.5575 60.5664 13.5121L56.6286 11.2367Z"/>
    <text x="17" y="47" font-size="14" font-family="arial">
        Non Fungible
    </text>
</svg>
