<svg width="113" height="49" viewBox="0 0 113 49" fill="none" xmlns="http://www.w3.org/2000/svg">
    <path fill-rule="evenodd" clip-rule="evenodd" d="M55.6902 7.21728C56.1915 6.92757 56.8085 6.92757 57.3098 7.21728L63.6857 10.9015C64.1877 11.1916 64.5 11.7299 64.5 12.3158V19.6842C64.5 20.2701 64.1877 20.8084 63.6857 21.0985L57.3098 24.7827C56.8085 25.0724 56.1915 25.0724 55.6902 24.7827L49.3143 21.0985C48.8123 20.8084 48.5 20.2701 48.5 19.6842V12.3158C48.5 11.7299 48.8123 11.1916 49.3143 10.9015L55.6902 7.21728ZM56.6286 8.419C56.5493 8.37316 56.4507 8.37316 56.3714 8.419L49.9955 12.1032C49.9169 12.1487 49.8714 12.2305 49.8714 12.3158V19.6842C49.8714 19.7695 49.9169 19.8513 49.9955 19.8968L56.3714 23.581C56.4507 23.6268 56.5493 23.6268 56.6286 23.581L63.0045 19.8968C63.0831 19.8513 63.1286 19.7695 63.1286 19.6842V12.3158C63.1286 12.2305 63.0831 12.1487 63.0045 12.1032L56.6286 8.419ZM55.6902 10.0349C56.1915 9.74524 56.8085 9.74524 57.3098 10.0349L61.2476 12.3104C61.7496 12.6004 62.0619 13.1388 62.0619 13.7246V18.2754C62.0619 18.8612 61.7496 19.3996 61.2476 19.6896L57.3098 21.9651C56.8085 22.2548 56.1915 22.2548 55.6902 21.9651L51.7524 19.6896C51.2504 19.3996 50.9381 18.8612 50.9381 18.2754V13.7246C50.9381 13.1388 51.2504 12.6004 51.7524 12.3104L55.6902 10.0349ZM56.6286 11.2367C56.5493 11.1908 56.4507 11.1908 56.3714 11.2367L52.4336 13.5121C52.355 13.5575 52.3095 13.6393 52.3095 13.7246V18.2754C52.3095 18.3607 52.355 18.4425 52.4336 18.4879L56.3714 20.7633C56.4507 20.8092 56.5493 20.8092 56.6286 20.7633L60.5664 18.4879C60.645 18.4425 60.6905 18.3607 60.6905 18.2754V13.7246C60.6905 13.6393 60.645 13.5575 60.5664 13.5121L56.6286 11.2367Z" fill="#ACA4E0"/>
    <path d="M25.8742 42V35H27.5042L29.9442 41.47H30.0742V35H30.9042V42H29.2742L26.8442 35.52H26.7042V42H25.8742ZM34.8048 42.14C34.3115 42.14 33.8748 42.0367 33.4948 41.83C33.1215 41.6233 32.8282 41.3333 32.6148 40.96C32.4082 40.58 32.3048 40.1333 32.3048 39.62V39.49C32.3048 38.9833 32.4082 38.54 32.6148 38.16C32.8282 37.78 33.1215 37.4867 33.4948 37.28C33.8748 37.0733 34.3115 36.97 34.8048 36.97C35.2982 36.97 35.7315 37.0733 36.1048 37.28C36.4848 37.4867 36.7782 37.78 36.9848 38.16C37.1982 38.54 37.3048 38.9833 37.3048 39.49V39.62C37.3048 40.1333 37.1982 40.58 36.9848 40.96C36.7782 41.3333 36.4848 41.6233 36.1048 41.83C35.7315 42.0367 35.2982 42.14 34.8048 42.14ZM34.8048 41.43C35.3248 41.43 35.7382 41.2667 36.0448 40.94C36.3582 40.6067 36.5148 40.16 36.5148 39.6V39.51C36.5148 38.95 36.3582 38.5067 36.0448 38.18C35.7382 37.8467 35.3248 37.68 34.8048 37.68C34.2915 37.68 33.8782 37.8467 33.5648 38.18C33.2515 38.5067 33.0948 38.95 33.0948 39.51V39.6C33.0948 40.16 33.2515 40.6067 33.5648 40.94C33.8782 41.2667 34.2915 41.43 34.8048 41.43ZM38.7265 42V37.11H39.4965V37.94H39.6365C39.7432 37.7067 39.9232 37.4967 40.1765 37.31C40.4365 37.1167 40.8165 37.02 41.3165 37.02C41.6832 37.02 42.0098 37.0967 42.2965 37.25C42.5898 37.4033 42.8232 37.63 42.9965 37.93C43.1698 38.23 43.2565 38.6 43.2565 39.04V42H42.4665V39.1C42.4665 38.6133 42.3432 38.26 42.0965 38.04C41.8565 37.82 41.5298 37.71 41.1165 37.71C40.6432 37.71 40.2565 37.8633 39.9565 38.17C39.6632 38.4767 39.5165 38.9333 39.5165 39.54V42H38.7265ZM47.3977 42V35H51.6277V35.76H48.2377V38.11H51.3577V38.87H48.2377V42H47.3977ZM54.698 42.09C54.3447 42.09 54.018 42.0133 53.718 41.86C53.4247 41.7067 53.1914 41.48 53.018 41.18C52.8514 40.8733 52.768 40.5033 52.768 40.07V37.11H53.558V40.01C53.558 40.4967 53.678 40.85 53.918 41.07C54.1647 41.29 54.4947 41.4 54.908 41.4C55.3747 41.4 55.758 41.2467 56.058 40.94C56.358 40.6333 56.508 40.1767 56.508 39.57V37.11H57.298V42H56.528V41.17H56.388C56.2814 41.4033 56.098 41.6167 55.838 41.81C55.578 41.9967 55.198 42.09 54.698 42.09ZM58.9511 42V37.11H59.7211V37.94H59.8611C59.9678 37.7067 60.1478 37.4967 60.4011 37.31C60.6611 37.1167 61.0411 37.02 61.5411 37.02C61.9078 37.02 62.2344 37.0967 62.5211 37.25C62.8144 37.4033 63.0478 37.63 63.2211 37.93C63.3944 38.23 63.4811 38.6 63.4811 39.04V42H62.6911V39.1C62.6911 38.6133 62.5678 38.26 62.3211 38.04C62.0811 37.82 61.7544 37.71 61.3411 37.71C60.8678 37.71 60.4811 37.8633 60.1811 38.17C59.8878 38.4767 59.7411 38.9333 59.7411 39.54V42H58.9511ZM64.8439 39.58V39.44C64.8439 38.9267 64.9472 38.4867 65.1539 38.12C65.3606 37.7533 65.6406 37.47 65.9939 37.27C66.3472 37.07 66.7339 36.97 67.1539 36.97C67.6672 36.97 68.0606 37.07 68.3339 37.27C68.6139 37.4633 68.8206 37.68 68.9539 37.92H69.0939V37.11H69.8439V43.14C69.8439 43.4067 69.7706 43.6167 69.6239 43.77C69.4772 43.9233 69.2639 44 68.9839 44H65.6639V43.3H68.7739C68.9739 43.3 69.0739 43.2 69.0739 43V41.14H68.9339C68.8539 41.2867 68.7406 41.43 68.5939 41.57C68.4472 41.71 68.2572 41.8267 68.0239 41.92C67.7906 42.0067 67.5006 42.05 67.1539 42.05C66.7339 42.05 66.3472 41.95 65.9939 41.75C65.6406 41.55 65.3606 41.2667 65.1539 40.9C64.9472 40.5267 64.8439 40.0867 64.8439 39.58ZM67.3639 41.35C67.8706 41.35 68.2806 41.19 68.5939 40.87C68.9139 40.55 69.0739 40.11 69.0739 39.55V39.47C69.0739 38.9033 68.9139 38.4633 68.5939 38.15C68.2806 37.83 67.8706 37.67 67.3639 37.67C66.8639 37.67 66.4506 37.83 66.1239 38.15C65.8039 38.4633 65.6439 38.9033 65.6439 39.47V39.55C65.6439 40.11 65.8039 40.55 66.1239 40.87C66.4506 41.19 66.8639 41.35 67.3639 41.35ZM71.4999 42V37.11H72.2899V42H71.4999ZM71.8999 36.35C71.7266 36.35 71.5799 36.2933 71.4599 36.18C71.3466 36.0667 71.2899 35.9233 71.2899 35.75C71.2899 35.57 71.3466 35.4233 71.4599 35.31C71.5799 35.1967 71.7266 35.14 71.8999 35.14C72.0733 35.14 72.2166 35.1967 72.3299 35.31C72.4433 35.4233 72.4999 35.57 72.4999 35.75C72.4999 35.9233 72.4433 36.0667 72.3299 36.18C72.2166 36.2933 72.0733 36.35 71.8999 36.35ZM76.6611 42.14C76.1544 42.14 75.7578 42.0433 75.4711 41.85C75.1911 41.6567 74.9878 41.4367 74.8611 41.19H74.7211V42H73.9511V35H74.7411V37.88H74.8811C74.9611 37.7267 75.0744 37.5833 75.2211 37.45C75.3678 37.31 75.5578 37.1967 75.7911 37.11C76.0311 37.0167 76.3211 36.97 76.6611 36.97C77.0878 36.97 77.4744 37.0733 77.8211 37.28C78.1744 37.48 78.4544 37.77 78.6611 38.15C78.8678 38.5233 78.9711 38.97 78.9711 39.49V39.62C78.9711 40.14 78.8644 40.59 78.6511 40.97C78.4444 41.35 78.1644 41.64 77.8111 41.84C77.4644 42.04 77.0811 42.14 76.6611 42.14ZM76.4511 41.44C76.9578 41.44 77.3678 41.28 77.6811 40.96C78.0011 40.6333 78.1611 40.18 78.1611 39.6V39.51C78.1611 38.93 78.0011 38.48 77.6811 38.16C77.3678 37.8333 76.9578 37.67 76.4511 37.67C75.9511 37.67 75.5378 37.8333 75.2111 38.16C74.8911 38.48 74.7311 38.93 74.7311 39.51V39.6C74.7311 40.18 74.8911 40.6333 75.2111 40.96C75.5378 41.28 75.9511 41.44 76.4511 41.44ZM80.3866 42V35H81.1766V42H80.3866ZM85.0778 42.14C84.5845 42.14 84.1511 42.0367 83.7778 41.83C83.4045 41.6167 83.1145 41.32 82.9078 40.94C82.7011 40.56 82.5978 40.12 82.5978 39.62V39.5C82.5978 38.9933 82.7011 38.55 82.9078 38.17C83.1145 37.79 83.4011 37.4967 83.7678 37.29C84.1345 37.0767 84.5545 36.97 85.0278 36.97C85.4878 36.97 85.8945 37.07 86.2478 37.27C86.6011 37.4633 86.8778 37.7433 87.0778 38.11C87.2778 38.4767 87.3778 38.9067 87.3778 39.4V39.76H83.3878C83.4078 40.2867 83.5778 40.7 83.8978 41C84.2178 41.2933 84.6178 41.44 85.0978 41.44C85.5178 41.44 85.8411 41.3433 86.0678 41.15C86.2945 40.9567 86.4678 40.7267 86.5878 40.46L87.2678 40.79C87.1678 40.9967 87.0278 41.2033 86.8478 41.41C86.6745 41.6167 86.4445 41.79 86.1578 41.93C85.8778 42.07 85.5178 42.14 85.0778 42.14ZM83.3978 39.11H86.5778C86.5511 38.6567 86.3945 38.3033 86.1078 38.05C85.8278 37.7967 85.4678 37.67 85.0278 37.67C84.5811 37.67 84.2145 37.7967 83.9278 38.05C83.6411 38.3033 83.4645 38.6567 83.3978 39.11Z" fill="#ACA4E0"/>
</svg>
