<svg fill="none" height="16" viewBox="0 0 16 16" width="16" xmlns="http://www.w3.org/2000/svg"><g fill="#08e8de"><path d="m15.4323 9.13846c-.4102-.10662-.8358.12946-.9442.54068-.9442 3.44966-4.55067 5.50576-8.05655 4.57676-3.50587-.9291-5.595468-4.47776-4.65128-7.92745.93645-3.45731 4.54293-5.505801 8.04881-4.58436 1.47822.38838 2.73972 1.25651 3.61422 2.44448h-1.4472c-.4257 0-.774.34269-.774.76152 0 .41884.3483.76152.774.76152h2.3217c.8514 0 1.5479-.68537 1.5479-1.52304v-2.28456c0-.41884-.3483-.76152-.7739-.76152-.4257 0-.774.34268-.774.76152v.91382c-1.0525-1.21843-2.4688-2.117024-4.0863-2.543475-4.33395-1.142282-8.79176 1.385965-9.952644 5.658095-1.160886 4.26455 1.408544 8.65085 5.742514 9.79315 4.33393 1.1423 8.79183-1.386 9.95263-5.6505.1084-.40358-.1315-.82241-.5494-.92903z"/><path d="m4.97657 7.99616c0-.12946-.10061-.22845-.23217-.22845h-.37149l.26314-.25892c.09287-.09138.09287-.23607 0-.31984s-.23992-.09138-.32505 0l-.26314.25892v-.36553c0-.12946-.10061-.22846-.23217-.22846-.13157 0-.23218.099-.23218.22846v.36553l-.26313-.25892c-.09288-.09138-.23992-.09138-.32505 0s-.09287.23607 0 .31984l.26313.25892h-.37148c-.13157 0-.23218.09899-.23218.22845s.10061.22846.23218.22846h.37148l-.26313.25892c-.09287.09138-.09287.23607 0 .31984.04643.04569.10835.06853.16252.06853.05418 0 .11609-.02284.16253-.06853l.26313-.25892v.36553c0 .12946.10061.22845.23218.22845.13156 0 .23217-.09899.23217-.22845v-.36553l.26314.25892c.04643.04569.10835.06853.16252.06853.05418 0 .11609-.02284.16253-.06853.09287-.09139.09287-.23608 0-.31984l-.26314-.25892h.37149c.13156 0 .23217-.099.23217-.22846z"/><path d="m7.77044 7.99616c0-.12946-.10061-.22845-.23218-.22845h-.37148l.26314-.25892c.09287-.09138.09287-.23607 0-.31984-.09288-.08377-.23992-.09138-.32505 0l-.26314.25892v-.36553c0-.12946-.10061-.22846-.23217-.22846-.13157 0-.23218.099-.23218.22846v.36553l-.26314-.25892c-.09287-.09138-.23991-.09138-.32504 0-.08514.09138-.09287.23607 0 .31984l.26313.25892h-.37148c-.13157 0-.23218.09899-.23218.22845s.10061.22846.23218.22846h.37148l-.26313.25892c-.09287.09138-.09287.23607 0 .31984.04643.04569.10835.06853.16252.06853s.11609-.02284.16252-.06853l.26314-.25892v.36553c0 .12946.10061.22845.23218.22845.13156 0 .23217-.09899.23217-.22845v-.36553l.26314.25892c.04643.04569.10835.06853.16252.06853.05418 0 .11609-.02284.16253-.06853.09287-.09139.09287-.23608 0-.31984l-.26314-.25892h.37148c.13157 0 .23218-.099.23218-.22846z"/><path d="m10.5566 7.99616c0-.12946-.1006-.22845-.2322-.22845h-.37149l.26309-.25892c.0929-.09138.0929-.23607 0-.31984-.0928-.08377-.23987-.09138-.325 0l-.26313.25892v-.36553c0-.12946-.10061-.22846-.23218-.22846s-.23218.099-.23218.22846v.36553l-.26313-.25892c-.09287-.09138-.23992-.09138-.32505 0s-.09287.23607 0 .31984l.26313.25892h-.37148c-.13157 0-.23218.09899-.23218.22845s.10061.22846.23218.22846h.37148l-.26313.25892c-.09287.09138-.09287.23607 0 .31984.04643.04569.10835.06853.16252.06853.05418 0 .11609-.02284.16253-.06853l.26313-.25892v.36553c0 .12946.10061.22845.23218.22845s.23218-.09899.23218-.22845v-.36553l.26313.25892c.04643.04569.10835.06853.1625.06853.0542 0 .1161-.02284.1625-.06853.0929-.09139.0929-.23608 0-.31984l-.26309-.25892h.37149c.1316 0 .2322-.099.2322-.22846z"/><path d="m13.3504 7.99616c0-.12946-.1006-.22845-.2321-.22845h-.3715l.2631-.25892c.0929-.09138.0929-.23607 0-.31984s-.2399-.09138-.325 0l-.2632.25892v-.36553c0-.12946-.1006-.22846-.2322-.22846-.1315 0-.2321.099-.2321.22846v.36553l-.2632-.25892c-.0928-.09138-.2399-.09138-.325 0s-.0929.23607 0 .31984l.2631.25892h-.3715c-.1315 0-.2321.09899-.2321.22845s.1006.22846.2321.22846h.3715l-.2631.25892c-.0929.09138-.0929.23607 0 .31984.0464.04569.1083.06853.1625.06853s.1161-.02284.1625-.06853l.2632-.25892v.36553c0 .12946.1006.22845.2321.22845.1316 0 .2322-.09899.2322-.22845v-.36553l.2632.25892c.0464.04569.1083.06853.1625.06853s.1161-.02284.1625-.06853c.0929-.09139.0929-.23608 0-.31984l-.2631-.25892h.3715c.1315 0 .2321-.099.2321-.22846z"/></g></svg>