<svg width="14" height="14" viewBox="0 0 14 14" fill="none" xmlns="http://www.w3.org/2000/svg">
  <g clip-path="url(#clip0_34_118)">
  <path d="M6.35355 8.07751L12.862 1.56909L13.0976 1.80469L6 8.90227L3.56909 6.47135L3.80469 6.23575L5.64645 8.07751L6 8.43107L6.35355 8.07751ZM0.5 6.66667C0.5 3.26681 3.26681 0.5 6.66667 0.5C7.80174 0.5 8.86426 0.811742 9.77976 1.35168L9.53891 1.59253C8.69053 1.11017 7.71033 0.833333 6.66667 0.833333C3.44986 0.833333 0.833333 3.44986 0.833333 6.66667C0.833333 9.88348 3.44986 12.5 6.66667 12.5C9.88348 12.5 12.5 9.88348 12.5 6.66667C12.5 6.36232 12.4766 6.06293 12.4313 5.7706L12.716 5.48594C12.7924 5.8687 12.8333 6.26314 12.8333 6.66667C12.8333 10.0665 10.0665 12.8333 6.66667 12.8333C3.26681 12.8333 0.5 10.0665 0.5 6.66667Z" fill="#0C0A3E" stroke="black"/>
  </g>
  <defs>
  <clipPath id="clip0_34_118">
  <rect width="14" height="13.3333" fill="white" transform="matrix(-1 0 0 1 14 0)"/>
  </clipPath>
  </defs>
  </svg>
