<svg width="14" height="14" viewBox="0 0 14 14" fill="#0C0A3E" xmlns="http://www.w3.org/2000/svg">
    <path fill-rule="evenodd" clip-rule="evenodd"
          d="M13.8337 0.166253C13.9958 0.328271 14.0445 0.571815 13.9572 0.783684L8.65994 13.6485C8.57293 13.8598 8.36769 13.9984 8.13918 14C7.91067 14.0016 7.70347 13.866 7.61345 13.656L5.43261 8.56739L0.343991 6.38655C0.133952 6.29653 -0.00161759 6.08933 1.45756e-05 5.86082C0.00164674 5.63231 0.140162 5.42706 0.351466 5.34006L13.2163 0.0427668C13.4282 -0.0444734 13.6717 0.00423568 13.8337 0.166253ZM6.5379 8.26476L8.12466 11.9672L11.8271 2.97557L6.5379 8.26476ZM11.0244 2.17291L2.03281 5.87534L5.73524 7.4621L11.0244 2.17291Z"/>
</svg>
