<svg fill="none" height="24" viewBox="0 0 24 24" width="24" xmlns="http://www.w3.org/2000/svg" xmlns:xlink="http://www.w3.org/1999/xlink"><clipPath id="a"><path d="m0 0h24v24h-24z"/></clipPath><g clip-path="url(#a)"><path clip-rule="evenodd" d="m9.25 4c0-.9665.7835-1.75 1.75-1.75h2c.9665 0 1.75.7835 1.75 1.75v.56879c0 .07879.0597.20435.2198.27082.1542.064.2808.02069.3402-.03871l.4023-.40232c.6834-.68342 1.7914-.68342 2.4748 0l1.4143 1.41421c.6834.68342.6834 1.79146 0 2.47488l-.4023.40226c-.0594.05941-.1027.18604-.0387.34023.0665.16012.192.21984.2709.21984h.5687c.9665 0 1.75.7835 1.75 1.75v2c0 .9665-.7835 1.75-1.75 1.75h-.5688c-.0788 0-.2043.0597-.2708.2198-.064.1542-.0207.2808.0387.3402l.4023.4023c.6834.6834.6834 1.7914 0 2.4749l-1.4142 1.4142c-.6835.6834-1.7915.6834-2.4749 0l-.4023-.4023c-.0594-.0594-.186-.1027-.3402-.0387-.1601.0665-.2198.192-.2198.2708v.5688c0 .9665-.7835 1.75-1.75 1.75h-2c-.9665 0-1.75-.7835-1.75-1.75v-.5687c0-.0789-.05972-.2044-.21984-.2709-.15419-.064-.28082-.0207-.34023.0387l-.40228.4023c-.68342.6834-1.79146.6834-2.47487 0l-1.41422-1.4142c-.68342-.6835-.68342-1.7915 0-2.4749l.40234-.4023c.0594-.0594.10271-.186.03871-.3402-.06647-.1601-.19203-.2198-.27082-.2198h-.56879c-.9665 0-1.75-.7835-1.75-1.75v-2c0-.9665.7835-1.75 1.75-1.75h.56877c.0788 0 .20438-.05971.27085-.21982.06401-.15417.02069-.28078-.03872-.34019l-.40232-.40232c-.68342-.68342-.68342-1.79146 0-2.47488l1.41421-1.41421c.68342-.68342 1.79146-.68342 2.47488 0l.40232.40232c.0594.05941.18602.10273.34019.03872.16011-.06647.21982-.19205.21982-.27086zm1.75-.25c-.1381 0-.25.11193-.25.25v.56876c0 .77682-.5145 1.39459-1.14465 1.65621-.63636.2642-1.43018.18243-1.97602-.36341l-.40232-.40232c-.09764-.09763-.25593-.09763-.35356 0l-1.41421 1.41422c-.09763.09763-.09763.25592 0 .35355l.40232.40232c.54584.54584.62761 1.33967.36341 1.97602-.26162.63015-.87939 1.14465-1.6562 1.14465h-.56877c-.13807 0-.25.1119-.25.25v2c0 .1381.11193.25.25.25h.56879c.7768 0 1.39456.5145 1.65617 1.1446.26419.6364.18243 1.4302-.3634 1.976l-.40234.4023c-.09763.0977-.09763.256 0 .3536l1.41422 1.4142c.09763.0976.25592.0976.35355 0l.40228-.4023c.54585-.5458 1.33969-.6276 1.97606-.3634.63017.2616 1.14467.8794 1.14467 1.6563v.5687c0 .1381.1119.25.25.25h2c.1381 0 .25-.1119.25-.25v-.5688c0-.7768.5145-1.3946 1.1447-1.6562.6363-.2642 1.4301-.1824 1.976.3634l.4022.4023c.0977.0976.256.0976.3536 0l1.4142-1.4142c.0976-.0976.0976-.2559 0-.3535l-.4023-.4023c-.5458-.5459-.6276-1.3397-.3634-1.976.2616-.6302.8794-1.1447 1.6562-1.1447h.5688c.1381 0 .25-.1119.25-.25v-2c0-.1381-.1119-.25-.25-.25h-.5687c-.7769 0-1.3947-.5145-1.6563-1.14467-.2642-.63636-.1824-1.43021.3634-1.97606l.4023-.40226c.0976-.09764.0976-.25593 0-.35356l-1.4142-1.41421c-.0976-.09763-.2559-.09763-.3536 0l-.4023.40232c-.5458.54583-1.3396.62759-1.976.3634-.6301-.26161-1.1446-.87937-1.1446-1.65617v-.56879c0-.13807-.1119-.25-.25-.25zm1 7c-.6904 0-1.25.5596-1.25 1.25s.5596 1.25 1.25 1.25 1.25-.5596 1.25-1.25-.5596-1.25-1.25-1.25zm-2.75 1.25c0-1.5188 1.2312-2.75 2.75-2.75s2.75 1.2312 2.75 2.75-1.2312 2.75-2.75 2.75-2.75-1.2312-2.75-2.75z" fill="#dfd8f5" fill-rule="evenodd"/></g></svg>