<svg width="16" height="16" viewBox="0 0 16 16" fill="none" xmlns="http://www.w3.org/2000/svg">
<path d="M2.43868 11.1242H10.2473C10.6952 11.1242 11.0616 11.4757 11.0616 11.9053C11.0616 12.3349 10.6952 12.6864 10.2473 12.6864H2.43868L4.50687 14.6702C4.82443 14.9749 4.82443 15.4669 4.50687 15.7715C4.18931 16.0762 3.67634 16.0762 3.35878 15.7715L0.476336 13.0066C-0.158779 12.3974 -0.158779 11.4054 0.476336 10.7962L3.35878 8.03124C3.67634 7.72663 4.18931 7.72663 4.50687 8.03124C4.82443 8.33585 4.82443 8.82792 4.50687 9.13253L2.43868 11.1164V11.1242ZM13.5613 3.31364L11.4931 1.32975C11.1756 1.02514 11.1756 0.533073 11.4931 0.22846C11.8107 -0.0761533 12.3237 -0.0761533 12.6412 0.22846L15.5237 2.99341C16.1588 3.60264 16.1588 4.59458 15.5237 5.20381L12.6412 7.96876C12.3237 8.27337 11.8107 8.27337 11.4931 7.96876C11.1756 7.66414 11.1756 7.17208 11.4931 6.86746L13.5613 4.88357H5.76896C5.32112 4.88357 4.95471 4.5321 4.95471 4.10251C4.95471 3.67293 5.32112 3.32145 5.76896 3.32145H13.5613V3.31364Z" fill="#4E3EB6"/>
</svg>
