<svg width="112" height="49" viewBox="0 0 112 49" fill="none" xmlns="http://www.w3.org/2000/svg">
    <path fill-rule="evenodd" clip-rule="evenodd" d="M64.953 7.21375C65.1613 7.42206 65.2239 7.73519 65.1118 8.00759L58.301 24.5481C58.1891 24.8198 57.9252 24.9979 57.6314 25C57.3376 25.0021 57.0712 24.8278 56.9555 24.5577L54.1515 18.0152L47.609 15.2113C47.339 15.0955 47.1647 14.8291 47.1668 14.5353C47.1689 14.2415 47.347 13.9777 47.6186 13.8658L64.1592 7.05499C64.4316 6.94282 64.7447 7.00545 64.953 7.21375ZM55.5726 17.6261L57.6127 22.3864L62.373 10.8257L55.5726 17.6261ZM61.341 9.79374L49.7804 14.554L54.5406 16.5941L61.341 9.79374Z" fill="#ACA4E0"/>
    <path d="M38.8674 42V35.76H36.6174V35H41.9574V35.76H39.7074V42H38.8674ZM42.2946 42V37.11H43.0646V37.71H43.2046C43.2913 37.4967 43.4246 37.34 43.6046 37.24C43.7846 37.14 44.0213 37.09 44.3146 37.09H44.8946V37.81H44.2646C43.9113 37.81 43.6246 37.91 43.4046 38.11C43.1913 38.3033 43.0846 38.6067 43.0846 39.02V42H42.2946ZM47.3981 42.14C47.0581 42.14 46.7481 42.08 46.4681 41.96C46.1881 41.84 45.9681 41.6667 45.8081 41.44C45.6481 41.2133 45.5681 40.9367 45.5681 40.61C45.5681 40.2767 45.6481 40.0033 45.8081 39.79C45.9681 39.57 46.1881 39.4067 46.4681 39.3C46.7481 39.1867 47.0614 39.13 47.4081 39.13H49.0581V38.77C49.0581 38.4233 48.9548 38.15 48.7481 37.95C48.5481 37.75 48.2481 37.65 47.8481 37.65C47.4548 37.65 47.1481 37.7467 46.9281 37.94C46.7081 38.1267 46.5581 38.38 46.4781 38.7L45.7381 38.46C45.8181 38.1867 45.9448 37.94 46.1181 37.72C46.2914 37.4933 46.5214 37.3133 46.8081 37.18C47.1014 37.04 47.4514 36.97 47.8581 36.97C48.4848 36.97 48.9714 37.1333 49.3181 37.46C49.6648 37.78 49.8381 38.2333 49.8381 38.82V41.03C49.8381 41.23 49.9314 41.33 50.1181 41.33H50.5681V42H49.8781C49.6581 42 49.4814 41.94 49.3481 41.82C49.2148 41.6933 49.1481 41.5267 49.1481 41.32V41.27H49.0281C48.9548 41.3967 48.8548 41.53 48.7281 41.67C48.6081 41.8033 48.4414 41.9133 48.2281 42C48.0148 42.0933 47.7381 42.14 47.3981 42.14ZM47.4881 41.46C47.9548 41.46 48.3314 41.3233 48.6181 41.05C48.9114 40.77 49.0581 40.38 49.0581 39.88V39.77H47.4381C47.1248 39.77 46.8648 39.84 46.6581 39.98C46.4581 40.1133 46.3581 40.3167 46.3581 40.59C46.3581 40.8633 46.4614 41.0767 46.6681 41.23C46.8814 41.3833 47.1548 41.46 47.4881 41.46ZM51.6501 42V37.11H52.4201V37.94H52.5601C52.6667 37.7067 52.8467 37.4967 53.1001 37.31C53.3601 37.1167 53.7401 37.02 54.2401 37.02C54.6067 37.02 54.9334 37.0967 55.2201 37.25C55.5134 37.4033 55.7467 37.63 55.9201 37.93C56.0934 38.23 56.1801 38.6 56.1801 39.04V42H55.3901V39.1C55.3901 38.6133 55.2667 38.26 55.0201 38.04C54.7801 37.82 54.4534 37.71 54.0401 37.71C53.5667 37.71 53.1801 37.8633 52.8801 38.17C52.5867 38.4767 52.4401 38.9333 52.4401 39.54V42H51.6501ZM59.7529 42.14C59.1462 42.14 58.6329 42 58.2129 41.72C57.7995 41.44 57.5495 40.9967 57.4629 40.39L58.2129 40.22C58.2662 40.54 58.3662 40.7933 58.5129 40.98C58.6595 41.16 58.8395 41.29 59.0529 41.37C59.2729 41.4433 59.5062 41.48 59.7529 41.48C60.1195 41.48 60.4095 41.4067 60.6229 41.26C60.8362 41.1133 60.9429 40.9167 60.9429 40.67C60.9429 40.4167 60.8395 40.24 60.6329 40.14C60.4329 40.0333 60.1562 39.9467 59.8029 39.88L59.3929 39.81C59.0795 39.7567 58.7929 39.6733 58.5329 39.56C58.2729 39.4467 58.0662 39.2933 57.9129 39.1C57.7595 38.9067 57.6829 38.6633 57.6829 38.37C57.6829 37.93 57.8529 37.5867 58.1929 37.34C58.5329 37.0933 58.9829 36.97 59.5429 36.97C60.0962 36.97 60.5429 37.0967 60.8829 37.35C61.2295 37.5967 61.4529 37.9467 61.5529 38.4L60.8129 38.59C60.7529 38.2367 60.6095 37.99 60.3829 37.85C60.1562 37.7033 59.8762 37.63 59.5429 37.63C59.2095 37.63 58.9462 37.6933 58.7529 37.82C58.5595 37.94 58.4629 38.12 58.4629 38.36C58.4629 38.5933 58.5529 38.7667 58.7329 38.88C58.9195 38.9867 59.1662 39.0667 59.4729 39.12L59.8829 39.19C60.2295 39.25 60.5395 39.3333 60.8129 39.44C61.0929 39.54 61.3129 39.6867 61.4729 39.88C61.6395 40.0733 61.7229 40.3267 61.7229 40.64C61.7229 41.12 61.5429 41.49 61.1829 41.75C60.8295 42.01 60.3529 42.14 59.7529 42.14ZM63.9089 42V37.8H62.4089V37.11H63.9089V35.86C63.9089 35.5933 63.9822 35.3833 64.1289 35.23C64.2822 35.0767 64.4989 35 64.7789 35H66.0089V35.68H64.9989C64.7989 35.68 64.6989 35.78 64.6989 35.98V37.11H66.2389V37.8H64.6989V42H63.9089ZM69.3686 42.14C68.8753 42.14 68.4419 42.0367 68.0686 41.83C67.6953 41.6167 67.4053 41.32 67.1986 40.94C66.9919 40.56 66.8886 40.12 66.8886 39.62V39.5C66.8886 38.9933 66.9919 38.55 67.1986 38.17C67.4053 37.79 67.6919 37.4967 68.0586 37.29C68.4253 37.0767 68.8453 36.97 69.3186 36.97C69.7786 36.97 70.1853 37.07 70.5386 37.27C70.8919 37.4633 71.1686 37.7433 71.3686 38.11C71.5686 38.4767 71.6686 38.9067 71.6686 39.4V39.76H67.6786C67.6986 40.2867 67.8686 40.7 68.1886 41C68.5086 41.2933 68.9086 41.44 69.3886 41.44C69.8086 41.44 70.1319 41.3433 70.3586 41.15C70.5853 40.9567 70.7586 40.7267 70.8786 40.46L71.5586 40.79C71.4586 40.9967 71.3186 41.2033 71.1386 41.41C70.9653 41.6167 70.7353 41.79 70.4486 41.93C70.1686 42.07 69.8086 42.14 69.3686 42.14ZM67.6886 39.11H70.8686C70.8419 38.6567 70.6853 38.3033 70.3986 38.05C70.1186 37.7967 69.7586 37.67 69.3186 37.67C68.8719 37.67 68.5053 37.7967 68.2186 38.05C67.9319 38.3033 67.7553 38.6567 67.6886 39.11ZM73.0466 42V37.11H73.8166V37.71H73.9566C74.0432 37.4967 74.1766 37.34 74.3566 37.24C74.5366 37.14 74.7732 37.09 75.0666 37.09H75.6466V37.81H75.0166C74.6632 37.81 74.3766 37.91 74.1566 38.11C73.9432 38.3033 73.8366 38.6067 73.8366 39.02V42H73.0466Z" fill="#ACA4E0"/>
</svg>
